PathFileType	4	(X/Y/Z)	45_2_29_p1_0-256_filt_butterworth.trc
DataRate	CameraRate	NumFrames	NumMarkers	Units	OrigDataRate	OrigDataStartFrame	OrigNumFrames
50.0	50.0	5	27	m	50.0	128	256
Frame#	Time	RHip			RKnee			RAnkle			RBigToe			RSmallToe			RHeel			LHip			LKnee			LAnkle			LBigToe			LSmallToe			LHeel			Neck			Head			Nose			RShoulder			RElbow			RWrist			RThumb			RIndex			RPinky			LShoulder			LElbow			LWrist			LThumb			LIndex			LPinky			
		X1	Y1	Z1	X2	Y2	Z2	X3	Y3	Z3	X4	Y4	Z4	X5	Y5	Z5	X6	Y6	Z6	X7	Y7	Z7	X8	Y8	Z8	X9	Y9	Z9	X10	Y10	Z10	X11	Y11	Z11	X12	Y12	Z12	X13	Y13	Z13	X14	Y14	Z14	X15	Y15	Z15	X16	Y16	Z16	X17	Y17	Z17	X18	Y18	Z18	X19	Y19	Z19	X20	Y20	Z20	X21	Y21	Z21	X22	Y22	Z22	X23	Y23	Z23	X24	Y24	Z24	X25	Y25	Z25	X26	Y26	Z26	X27	Y27	Z27	
128	2.56	0.5690526694387332	0.5328837568862864	0.963075836575973	0.5795634636696007	0.6338642717278342	1.3324365221622558	0.5943195913102584	0.8131900305941953	1.6723173012355896	0.589750152418079	0.675082274946305	1.7494336778369899	0.6482462150148727	0.7165221001814142	1.7458709643156207	0.5797817284201778	0.9304913326080132	1.7210201782545664	0.3447052734061115	0.527212040284397	0.9815466656389789	0.3875000752660133	0.6686439900480928	1.3632102368459147	0.42276403881604	0.8409423775210193	1.6966436358546768	0.43121409567614005	0.6729575987460175	1.7555900801669764	0.3816105033619879	0.7321051084211891	1.7615073347444001	0.4451851122072991	0.9205142183268712	1.737769307985721	0.4363372688817902	0.30268923323332536	0.44128975571812235	0.4042613558713299	0.1854982410863583	0.22146663363822058	0.4189718995578783	0.1851447835837508	0.37019056366238545	0.5998900205483977	0.3780403537072555	0.5059988523149244	0.6174738715377506	0.35765423046953065	0.7356843958095944	0.5028556283999214	0.2766951735725089	0.9188328482020551	0.45250917708812877	0.3772544607667966	1.020197810353122	0.44559828302988597	0.37003219669569	1.0265250514850845	0.4419121639692126	0.36263522759444	1.030917383364582	0.27381323404255714	0.36401070850966244	0.49421728048014446	0.2701758147541001	0.3539392721603078	0.7250013015470698	0.41511970699575906	0.29944724519776644	0.9187445398025555	0.49462355788792023	0.3469349692860738	0.9997005166953804	0.49483911759835697	0.3593146619136702	1.0311122573648304	0.4462525281985949	0.3608632822165034	1.0281601922336687
129	2.58	0.5690975357328456	0.5328844830533143	0.9633136231094678	0.5794831921919951	0.6339459228899	1.332431214452432	0.5943361077114907	0.8133473861370014	1.672375164619095	0.5897140374596495	0.6749273430655841	1.7494751510200393	0.6480912081584822	0.7241757093158914	1.7476012251800175	0.5797764968177587	0.9304339634575851	1.7209639227092501	0.34485729726195785	0.5273111513622143	0.9816631126848948	0.3874640113954647	0.668764732765795	1.363785619458736	0.4223708878820742	0.8398870326977746	1.69509309801354	0.4312187355962735	0.6730311683370216	1.7557115387716784	0.3814700716343585	0.7320538410870147	1.7609928229409313	0.44539115062364587	0.920740563407281	1.7392022541597119	0.43600282641800997	0.30348061861592734	0.440845160138049	0.4030676772475197	0.18393230819861184	0.22236266718314696	0.4160626305707521	0.18233389487953874	0.3703857088574097	0.5988175321100929	0.374666089490643	0.5059362782521812	0.6177149055278199	0.3575131612218443	0.7346836102075376	0.5024304058807213	0.27602606555513387	0.9176099158836031	0.4523042449418114	0.380444808995739	1.0199691921968443	0.4451898039391458	0.36941029248875956	1.0245845592910112	0.44171111919984596	0.3595737766830847	1.0298254654045194	0.273877868298374	0.36405275862135156	0.4951086594484089	0.270379939071323	0.3548183923863396	0.7259926342607759	0.4158336315488966	0.30435859734870374	0.9186283141816315	0.4958438699937032	0.34688897744463243	0.9995688784361654	0.4947257607022515	0.3589110584373316	1.0311059549565817	0.44712269324563564	0.36598608002554534	1.027142302804703
130	2.6	0.5693127944773425	0.5328452429655165	0.964392562097466	0.5793559086877671	0.6341141315501851	1.332411770364415	0.5943234717523563	0.813303219539204	1.6724242042955584	0.5897303213666606	0.6748823603470818	1.7495225009406685	0.6479614174966573	0.7269903403492498	1.7483214722284228	0.5797808956661974	0.9303942678739155	1.72097525916494	0.3450819885161984	0.5274953852641722	0.9825453332072813	0.3874874317956982	0.6686356461334575	1.3632493095656013	0.42092443040912564	0.8392950103934639	1.695708804079935	0.4312551601755724	0.6730543433314451	1.7558522288389484	0.3811207530716769	0.7329373740952967	1.7618315522357972	0.4450004521149927	0.9198675905268738	1.741319502249922	0.43438268337008956	0.3068159352563799	0.44035901841180036	0.4026131658241109	0.18380369179138584	0.22270983092046398	0.41378631662927123	0.17792962863234874	0.37054757851668674	0.59741427373993	0.3699719571247139	0.5059564633666909	0.6190436314805082	0.3574069055813102	0.7337700772771888	0.5020362165232582	0.275739366879564	0.9164160004304791	0.4531242550908266	0.38109418950549556	1.0206343779743199	0.44507289332331057	0.3691031102128729	1.023370948182233	0.4413052266592702	0.3565806381905843	1.0291383815609572	0.2738659024463278	0.36427830950222617	0.49561112614917024	0.27067905904900125	0.35599505092014744	0.7273861807709697	0.4164161786075934	0.30735044235173137	0.9185837420059484	0.4976779658036218	0.3464968999500856	0.998950749491258	0.494904803871442	0.35863563146285343	1.031136487097987	0.4478748790929966	0.36945495674461787	1.026810516051964
131	2.62	0.5696874122178053	0.532775137172425	0.965980116690512	0.579254941776203	0.6340035357023092	1.332361920463476	0.5942317708400054	0.8128809082030984	1.6723762357201901	0.5897783092428127	0.6749449898971982	1.7495830791440328	0.6479043579051846	0.7265922599082952	1.7482790757404898	0.5797726466083045	0.9303656354799339	1.7209753257238427	0.34523178344138433	0.5276075492217134	0.9840319949051273	0.387571057289579	0.6682915127298469	1.361873769809136	0.4189694398212586	0.8390612290813267	1.6975291173139773	0.43126775213122204	0.673026719321677	1.755862307278589	0.38070978153245977	0.7324789295283641	1.7622523732026483	0.444098144401491	0.9156669774702483	1.7428760251220825	0.4314727942936186	0.31152038259433057	0.44008707754667237	0.4022868201678017	0.1840854170621491	0.22265957075390272	0.4114811423477218	0.17461558315999717	0.37065000755943545	0.5964398289601164	0.3665690962263734	0.5059880764986437	0.6224859005590933	0.3570803415779813	0.7322701869027561	0.5020754438853922	0.27462657009158725	0.9150603349722083	0.4571084986113828	0.3804868761144128	1.0216660944918652	0.44545341002296795	0.3693388609523154	1.0237128058259164	0.44135568156045896	0.355002582242024	1.030141303931386	0.27394173413581024	0.3650286221180518	0.49648673246625663	0.27090054586797757	0.3568834694329467	0.7283437160520569	0.41655721234992704	0.30773692760699184	0.9185836442979775	0.4990715800377758	0.3450142691076256	0.9976520857144275	0.4952668836957972	0.3585808805214334	1.0311669356366888	0.4483744845094323	0.3699235915757291	1.0270337912613308
132	2.64	0.5699583556454128	0.5328436415628575	0.9671023680050395	0.5791912168414493	0.6333479115044133	1.332303379633363	0.5941217853532159	0.8124277550192539	1.6722805874863955	0.5897916316137962	0.6750376232254245	1.7496416645865105	0.64788783599133	0.7259531227577163	1.7481447625184763	0.5797553857662151	0.9303675711919055	1.7209478032342647	0.34524272141388634	0.5275626110036776	0.9851789559955265	0.38767722034069335	0.6679454985042881	1.360588990209462	0.4176905906882096	0.8392991447167776	1.6994043427512957	0.4310418342308957	0.6729859680920713	1.7555268251399077	0.3803347910364916	0.7283125164453907	1.7619044046277321	0.4430628071021588	0.9098160150937291	1.743239949035043	0.42881270223250467	0.3146675155592759	0.4407649876151485	0.401128442538136	0.18434389881107613	0.22267153235988582	0.4085280254086642	0.17378369586097298	0.37071453653796255	0.596195157468924	0.36558239890043354	0.5060272731818942	0.6265177130458777	0.35657616806973524	0.7302081167964993	0.5029555609883325	0.2709231667155522	0.9135040780888639	0.46296466223664406	0.3793840561337336	1.0221871496829462	0.4470031959324677	0.3703830715700096	1.0251557893750325	0.4423983664053769	0.35424426923259145	1.032659233508716	0.2741056796602677	0.36605461225738123	0.4977804328539942	0.2709538009661115	0.3572685077481955	0.7285285963516079	0.41637096931656176	0.3072219296073151	0.9186113978752615	0.4995521233605367	0.34255603934042694	0.9961782789685425	0.49552726141082415	0.3586586916299619	1.031185711699136	0.4488604116622295	0.36900192747500565	1.0278142163822857
